<svg width="348" height="194" viewBox="0 0 348 194" fill="none" xmlns="http://www.w3.org/2000/svg">
<rect width="348" height="194" fill="white"/>
<path d="M41.8829 134.506C41.8829 118.08 41.382 101.57 42.0474 85.1557C42.394 76.6073 42.7698 67.6562 44.4327 59.2466C45.8811 51.9221 49.4027 45.4116 52.5345 38.7249C53.9273 35.7511 56.5791 26.9207 60.8419 26.5928C63.7835 26.3666 66.878 31.6871 68.0388 33.3374C71.9319 38.8722 75.4397 44.7794 78.7315 50.6924C80.0053 52.9805 80.7224 55.8122 82.2683 57.9305C83.2759 59.3114 85.5342 59.4899 86.9977 59.6989C93.9506 60.6922 101.052 60.4803 108.054 60.4803C136.636 60.4803 165.219 60.4803 193.801 60.4803C201.549 60.4803 208.617 60.2244 216.256 59.3288C220.529 58.8278 225.357 58.9251 229.457 57.4782C232.742 56.3188 235.166 50.2423 236.489 47.4846C239.112 42.0212 240.005 35.9916 242.494 30.5409C243.555 28.2155 244.69 25.7096 246.195 23.6318C248.444 20.526 252.171 28.2641 252.775 29.4716C258.895 41.7105 264.013 55.2424 268.403 68.2119C271.984 78.7938 275.382 90.0878 277.615 101.03C278.945 107.546 282.262 113.492 283.578 120.071C284.158 122.969 285.131 125.925 285.388 128.872C285.564 130.897 286.804 132.507 286.909 134.506C287.358 143.026 278.238 146.652 271.282 148.777C257.501 152.988 241.807 153.721 227.647 155.11C207.727 157.064 188.028 157.455 168.056 157.455C138.69 157.455 109.977 163.377 80.541 163.377C61.9797 163.377 43.4183 163.377 24.8569 163.377" stroke="#FFC0C0" stroke-width="10" stroke-linecap="round"/>
<path d="M41.8829 134.506C41.8829 118.08 41.382 101.57 42.0474 85.1557C42.394 76.6073 42.7698 67.6562 44.4327 59.2466C45.8811 51.9221 49.4027 45.4116 52.5345 38.7249C53.9273 35.7511 56.5791 26.9207 60.8419 26.5928C63.7835 26.3666 66.878 31.6871 68.0388 33.3374C71.9319 38.8722 75.4397 44.7794 78.7315 50.6924C80.0053 52.9805 80.7224 55.8122 82.2683 57.9305C83.2759 59.3114 85.5342 59.4899 86.9977 59.6989C93.9506 60.6922 101.052 60.4803 108.054 60.4803C136.636 60.4803 165.219 60.4803 193.801 60.4803C201.549 60.4803 208.617 60.2244 216.256 59.3288C220.529 58.8278 225.357 58.9251 229.457 57.4782C232.742 56.3188 235.166 50.2423 236.489 47.4846C239.112 42.0212 240.005 35.9916 242.494 30.5409C243.555 28.2155 244.69 25.7096 246.195 23.6318C248.444 20.526 252.171 28.2641 252.775 29.4716C258.895 41.7105 264.013 55.2424 268.403 68.2119C271.984 78.7938 275.382 90.0878 277.615 101.03C278.945 107.546 282.262 113.492 283.578 120.071C284.158 122.969 285.131 125.925 285.388 128.872C285.564 130.897 286.804 132.507 286.909 134.506C287.358 143.026 278.238 146.652 271.282 148.777C257.501 152.988 241.807 153.721 227.647 155.11C207.727 157.064 188.028 157.455 168.056 157.455C138.69 157.455 109.977 163.377 80.541 163.377C61.9797 163.377 43.4183 163.377 24.8569 163.377" stroke="black" stroke-opacity="0.2" stroke-width="10" stroke-linecap="round"/>
</svg>
